<?xml version="1.0" encoding="UTF-8"?>
<svg width="294px" height="293px" viewBox="0 0 294 293" version="1.1" xmlns="http://www.w3.org/2000/svg" xmlns:xlink="http://www.w3.org/1999/xlink">
    <!-- Generator: Sketch 53.1 (72631) - https://sketchapp.com -->
    <title>Branding/Logo_black</title>
    <desc>Created with Sketch.</desc>
    <g id="Page-1" stroke="none" stroke-width="1" fill="none" fill-rule="evenodd">
        <g id="Home" transform="translate(-891.000000, -255.000000)" fill="#333333">
            <g id="Group" transform="translate(257.000000, 255.000000)">
                <g id="Branding/Logo_black" transform="translate(634.000000, 0.000000)">
                    <g id="Group-Copy">
                        <g id="Group-21">
                            <path d="M103.805651,27.9220206 C104.422799,29.0186203 105.044484,30.1250803 105.665413,31.2294273 C105.433227,30.633587 105.254738,30.0187305 105.150367,29.3461212 C104.875827,28.5558933 104.372126,28.3276991 103.805651,27.9220206" id="Fill-1"></path>
                            <path d="M107.349107,34.3037802 C107.458015,34.5052108 107.566923,34.7073458 107.668269,34.8946904 C107.808942,35.0510456 107.945834,35.2024708 108.068356,35.3384012 C107.829362,34.9947014 107.587344,34.6467757 107.349107,34.3037802" id="Fill-3"></path>
                            <path d="M110.895209,39.9048904 C110.405878,38.8491402 109.82352,37.8905839 109.223768,36.9862589 C109.585283,37.8673419 110.113943,38.8371671 110.895209,39.9048904" id="Fill-5"></path>
                            <path d="M108.654116,35.1541556 C108.664705,35.6006837 108.562603,35.8718403 108.086129,35.3605164 C108.080835,35.3534733 108.075541,35.3471346 108.067978,35.3379787 C108.452938,35.8809962 108.845462,36.4141536 109.223617,36.9860476 C108.953614,36.32682 108.76,35.7126678 108.654116,35.1541556" id="Fill-7"></path>
                            <path d="M108.654116,35.1541556 C108.644284,34.7231222 108.508149,34.0948839 108.508902,33.8568295 C108.516468,34.2512392 108.564116,34.6872027 108.654116,35.1541556" id="Fill-9"></path>
                            <path d="M114.028594,34.3965369 C114.498262,34.919834 113.132369,35.4029858 114.062628,36.4319725 C115.945079,38.9885922 117.773833,41.0951624 119.141238,43.6947446 C120.042001,44.7589464 119.536031,47.2768295 120.429987,48.3318753 C121.289153,49.6672338 123.068747,51.9364979 124.301529,53.3915878 C125.541118,54.8424519 126.31709,55.4298406 125.285486,53.2845338 C122.05605,46.8901672 119.557964,42.9186028 116.283149,37.4102493 C113.292706,33.087942 110.169909,29.0924313 106.997953,24.7835057 C106.169039,23.5460454 105.553404,22.3092894 104.911298,21.0718291 C105.661556,22.7332798 106.43299,24.4278327 107.309552,26.2942356 C107.823085,27.5563465 108.902337,28.6839355 110.163103,29.9425249 C111.411768,31.2060445 112.825308,32.6118332 114.028594,34.3965369" id="Fill-11"></path>
                            <path d="M89.4413156,3.84267697 C89.9495547,4.30962984 90.975865,5.25198721 90.975865,5.25198721 C91.73898,8.23471026 93.8059704,10.6222973 95.8472464,13.041578 C95.8026242,12.5471573 95.7572457,12.0435807 95.7118672,11.5336653 C94.6658929,10.079984 94.2083264,10.1053389 94.8012721,11.5836709 C93.576809,8.11920457 91.7798207,5.19141715 89.6742585,2.35659772 C89.4640048,2.73480841 89.0555984,2.92426591 89.4413156,3.84267697" id="Fill-13"></path>
                            <path d="M88.4137196,0.709655667 C88.8357396,1.26112489 89.2592722,1.81470702 89.6737291,2.3570203 C89.7001999,2.32391806 89.7160824,2.27602546 89.7387716,2.23306298 C89.2887682,1.69427121 88.8402774,1.15688805 88.4008623,0.630773735 L88.4137196,0.709655667 Z" id="Fill-15"></path>
                            <path d="M118.502082,51.8117659 C122.391019,59.6872816 125.50474,67.3374204 127.915094,74.968543 C128.379467,75.4742326 128.85216,75.7904646 128.924766,76.6299937 C128.865774,77.29556 128.897539,77.9385886 128.978464,78.5611925 C129.307458,79.6817385 129.6183,80.8036931 129.877714,81.9277606 C130.019144,82.3087885 130.162086,82.6954509 130.308053,83.0877476 C130.310322,83.0926777 130.319398,83.109581 130.323936,83.1180326 C130.654443,83.7131686 130.821587,83.4779314 130.923688,83.0377421 C130.954697,82.5658591 131.021252,82.1228525 131.113522,81.7340773 C131.055286,81.981992 131.023521,82.6088216 130.923688,83.0377421 C130.882091,83.6131576 130.921419,84.2315356 130.999319,84.9464031 C131.324532,85.9627123 131.625542,87.0374786 131.799493,88.1714064 C131.346465,86.9585967 131.100664,85.8908734 130.999319,84.9464031 C130.795872,84.3019659 130.535702,83.6983783 130.308053,83.0877476 C130.217296,82.9180106 130.127296,82.7475693 130.032757,82.5700849 L130.504694,84.5026923 L130.904024,86.4430469 C131.168732,87.7354429 131.437222,89.0250216 131.620248,90.3272778 C131.769241,90.9160751 131.907645,91.4795174 132.042268,91.9352014 C132.577734,93.7797709 132.983116,95.6616684 132.457481,96.8913814 C132.483952,97.3526998 132.511179,97.8231742 132.538406,98.2929443 C132.574709,98.2027935 132.601936,98.1041911 132.64429,98.0126317 C132.618575,98.2239226 132.58681,98.4028156 132.554289,98.5486063 C132.717651,100.514316 132.684374,102.487773 132.69345,104.464047 C132.928661,105.734609 133.261437,107.066446 133.403623,108.407439 C133.403623,108.407439 132.838661,109.264576 132.561096,109.685045 C132.868157,110.243557 133.056478,111.035898 133.070091,111.94797 C133.624465,110.930252 134.172032,109.982965 134.559262,109.074414 C135.001702,108.415891 134.653044,107.629184 134.384555,106.835435 C134.119847,106.03746 133.939089,105.232441 134.640187,104.428127 C133.939089,105.232441 134.119847,106.03746 134.384555,106.835435 C134.653044,107.629184 135.001702,108.415891 134.559262,109.074414 C134.172032,109.982965 133.624465,110.930252 133.070091,111.94797 C133.047402,112.891032 132.872695,113.96439 132.579247,115.019435 C132.238908,116.066734 131.716299,117.082339 131.154362,117.942997 C131.123354,116.702015 131.425877,115.653308 131.760922,114.669397 C132.084621,113.684781 132.564877,112.793134 133.070091,111.94797 C133.056478,111.035898 132.868157,110.243557 132.561096,109.685045 C132.838661,109.264576 133.403623,108.407439 133.403623,108.407439 C133.261437,107.066446 132.928661,105.734609 132.69345,104.464047 C132.556558,108.314471 132.096722,112.177573 131.125623,115.989261 C130.912344,116.749908 130.699821,117.508442 130.488055,118.265568 C130.218053,119.002269 129.948051,119.737561 129.678805,120.471445 C129.539644,120.835569 129.422416,121.207441 129.266617,121.564523 L128.771235,122.622386 C128.429384,123.32035 128.146524,124.041556 127.765345,124.716279 C126.983322,126.055863 126.261804,127.416576 125.318688,128.646993 C124.866416,129.27171 124.462547,129.924599 123.94977,130.506353 C123.467245,131.107828 122.975645,131.701555 122.441691,132.262181 C118.285778,136.847897 112.933384,140.351804 107.08334,143.013365 C101.222707,145.687604 94.8409783,147.526539 88.2164744,148.890069 C81.5813821,150.24867 74.6778005,151.115667 67.5231245,151.698125 C59.7603766,152.298896 52.0944363,152.54188 44.475387,152.744719 C40.6651061,152.847548 36.8639008,152.943333 33.0490821,153.094054 C29.231238,153.251113 25.4065872,153.444797 21.4896668,153.8709 C19.7289812,154.058949 17.9546821,154.309681 16.148618,154.672397 C14.3433102,155.034408 12.5115317,155.485867 10.6215174,156.166928 L9.19209478,156.734596 C8.71108273,156.952225 8.24141531,157.171264 7.65830166,157.464958 C7.09560832,157.779781 6.53669653,158.105874 5.99669244,158.453095 C5.4793776,158.826375 4.94618029,159.188387 4.4704624,159.603926 C2.53582591,161.240726 1.09052086,163.352931 0.412112363,165.686991 C-0.127135416,167.70341 -0.134698498,169.831814 0.375809567,171.872884 C0.606483582,172.899053 1.00505803,173.890007 1.42556541,174.866876 L2.10246129,176.17054 C2.31195867,176.562133 2.543389,176.899494 2.76649993,177.265027 C4.58693387,180.112524 6.69098341,182.29375 8.82604159,184.329186 C13.1301918,188.323288 17.6710665,191.6152 22.2754711,194.788789 C26.8836572,197.951814 31.5735247,200.947919 36.3110395,203.975717 C41.0523359,206.995064 45.8329603,210.070051 50.6740894,213.249978 C55.4963108,216.369336 62.8067863,220.082422 70.1944052,223.475049 C77.5789989,226.881058 85.0460302,229.956045 90.1201022,232.114733 C104.674498,235.949663 100.252364,227.628323 99.7857216,227.066994 C96.7680517,223.04472 93.3654209,220.938854 88.7829492,218.582961 C84.2224105,216.201008 78.4495097,213.590157 70.9454193,208.395922 C76.1465511,211.769534 73.7014065,211.511759 68.8179242,209.395328 C63.9518369,207.261995 56.7101855,203.172107 52.4567079,199.00686 C46.5915375,193.087898 38.2918108,188.21553 30.0019161,182.97129 C25.877011,180.361143 21.7400049,177.609431 18.4069544,174.670375 C16.7551772,173.219511 15.3431497,171.679905 14.5384378,170.390326 L14.381882,170.150863 L14.2744862,169.934642 C14.2245698,169.838857 14.2404523,169.86069 14.2192757,169.828292 C14.2033932,169.807867 14.1943175,169.788851 14.188267,169.767722 C14.1580147,169.686023 14.1368381,169.602915 14.129275,169.519103 C14.1133925,169.352183 14.1534769,169.185263 14.2548222,169.05708 C14.3002007,169.023978 14.3312093,168.990876 14.3538985,168.956365 C14.3947392,168.928193 14.4302857,168.900725 14.4749079,168.881005 C14.63222,168.806349 14.7660865,168.759865 14.8855832,168.714789 C14.9642393,168.676757 14.902222,168.731692 15.3318051,168.514767 C15.7039088,168.361229 16.0782813,168.187971 16.5524866,168.027389 C17.4638381,167.697071 18.5423336,167.368162 19.7630151,167.090666 C20.9685705,166.804719 22.2936225,166.556101 23.7117005,166.357487 C27.4070225,165.984911 31.3163799,165.765873 35.252208,165.548947 C39.261398,165.332022 43.2463861,165.115801 47.2192733,164.900989 C55.2731998,164.425584 63.436791,163.783964 71.7251731,162.707085 C80.0127988,161.618937 88.4463921,160.124406 97.0229276,157.690335 C101.305145,156.443014 105.628959,154.999897 109.925546,153.101801 C114.222133,151.231877 118.497544,148.92458 122.56497,146.041164 C124.700028,144.487471 126.599874,142.732348 128.28871,140.896935 C129.977547,139.054478 131.390331,137.071866 132.624626,135.08221 C135.046325,131.046554 136.509781,126.891166 137.545167,122.894951 C137.753908,122.170928 137.977019,121.445496 138.209962,120.720064 C138.455762,119.996744 138.59341,119.259339 138.802908,118.53109 C138.999548,117.801432 139.196188,117.073183 139.392072,116.349864 C139.545602,115.623727 139.698377,114.902521 139.848882,114.190471 C140.192246,112.760736 140.382836,111.368329 140.562837,110.03297 C140.776872,108.692682 140.834352,107.427049 140.861579,106.250159 C141.003008,98.8352576 139.539552,92.7085261 137.71458,87.1262208 C138.119961,88.7087896 138.446686,90.2061377 138.802908,91.6520717 C139.09333,93.1205433 139.375433,94.5467568 139.662074,95.9962123 C139.879891,97.4660926 140.106027,98.9627364 140.292079,100.563617 C140.354096,101.370748 140.416869,102.201826 140.483425,103.064597 C140.512921,103.496335 140.543173,103.936524 140.574182,104.385165 C140.578719,104.83944 140.582501,105.302167 140.587039,105.775459 C140.568887,108.306724 140.126447,107.39606 139.645435,105.486695 C139.4314,104.528138 139.085767,103.340684 138.809714,102.189853 C138.678117,101.615846 138.548788,101.05029 138.428535,100.528402 C138.303744,100.011444 138.188785,99.5381519 138.092734,99.1423337 C137.869623,98.4704287 138.111642,97.5703295 138.351392,96.6554399 C138.588872,95.7426633 138.756017,94.8319995 138.506435,94.1650246 C138.402064,93.4226893 138.258366,92.7000745 138.088953,91.9873199 C137.889287,91.2823126 137.663907,90.5871656 137.424914,89.8892013 C137.178358,89.1947586 136.930288,88.4939772 136.675413,87.7755881 C136.391797,87.068468 136.105912,86.3458531 135.828347,85.5943619 C135.207418,84.3378854 136.660286,84.1935033 136.349444,83.5603349 C134.939685,79.4084689 132.183698,76.7300047 131.70193,74.0437932 C131.242094,72.0224437 130.855621,70.1799872 130.40713,68.4079609 C130.06906,67.3036139 129.755192,66.195041 129.23107,65.0857638 C128.837034,64.4230147 128.427115,63.7349107 128.017952,63.0468068 C127.834925,63.7708302 127.410637,64.1553796 126.975003,64.5251387 C126.627101,63.4616412 126.348023,61.8797767 125.962306,60.8254352 C126.348023,61.8797767 126.627101,63.4616412 126.975003,64.5251387 C127.410637,64.1553796 127.834925,63.7708302 128.017952,63.0468068 C125.094821,58.116686 121.693703,52.5371979 118.43477,47.4387488 C118.410568,47.4753725 118.378803,47.5232651 118.353845,47.5612975 C120.061589,50.6271283 121.413868,53.7697281 122.092277,57.3828023 C121.736056,55.8453089 122.186059,55.8706638 123.011191,57.4673187 C122.983208,57.9680781 122.939342,58.4772891 122.89472,58.9759356 C121.255044,56.2798639 119.586628,53.6401364 119.241751,50.5947303 C119.241751,50.5947303 118.373509,49.5178511 117.925775,48.9959626 C117.66258,48.0395192 118.095944,47.8993629 118.353845,47.5612975 C118.021826,46.9633443 117.671655,46.3632781 117.31619,45.7653249 C117.319216,46.5597787 117.628546,48.0705085 117.934094,49.3783991 C118.218466,50.69615 118.502082,51.8117659 118.502082,51.8117659" id="Fill-17"></path>
                            <path d="M130.975495,85.0321168 C130.826503,84.586293 130.643476,84.0383453 130.448349,83.4544782 C130.724401,84.5306531 130.92331,85.6223227 131.14264,86.7097665 C131.3597,87.7979145 131.589618,88.884654 131.740879,89.9847752 C132.250631,88.7050568 131.587349,86.8654174 130.975495,85.0321168" id="Fill-19"></path>
                        </g>
                        <g id="Group-42" transform="translate(23.219792, 19.590276)">
                            <path d="M16.3697385,24.44958 C15.704697,23.8493454 15.0343413,23.244156 14.3647447,22.6403823 C14.6380494,23.0056194 14.8688401,23.4069555 15.0472473,23.8833209 C15.3850823,24.3844602 15.8413494,24.3632255 16.3697385,24.44958" id="Fill-22"></path>
                            <path d="M12.6074712,20.908125 C12.4913167,20.7962889 12.3797172,20.6802057 12.2817831,20.5704931 C12.1527225,20.4968794 12.0259395,20.4275126 11.9075074,20.3687633 C12.1443715,20.5443036 12.3645337,20.7340004 12.6074712,20.908125" id="Fill-24"></path>
                            <path d="M9.41018546,18.0297594 C9.59618451,18.3043951 9.81027321,18.5634586 10.0365088,18.8034109 C10.2733729,19.0497336 10.4692413,19.2479242 10.7918927,19.5013252 C10.577804,19.21678 10.4328006,18.9931076 10.2133977,18.7531554 C9.99779062,18.5153266 9.73739195,18.2782056 9.41018546,18.0297594" id="Fill-26"></path>
                            <path d="M11.413661,20.7114208 C11.3726652,20.3695419 11.4447873,20.1295896 11.8904259,20.3582167 C11.8957401,20.361048 11.9002952,20.3645871 11.9071278,20.368834 C11.5374073,20.0857045 11.1669275,19.8061141 10.7918927,19.501042 C11.0765851,19.9080407 11.2808045,20.3171629 11.413661,20.7114208" id="Fill-28"></path>
                            <path d="M11.413661,20.7114208 C11.4554158,21.0391432 11.6133252,21.4879035 11.64597,21.6655673 C11.5928274,21.3689891 11.5282971,21.0391432 11.413661,20.7114208" id="Fill-30"></path>
                            <path d="M6.73096403,23.0486551 C6.48802649,22.9120451 6.66187866,22.6409485 6.77727399,22.3394156 C6.88355917,22.020187 6.92759159,21.63867 6.40375753,21.2677703 C5.86853577,20.766631 5.26802455,20.3079612 4.76924342,19.7919576 C4.26211132,19.2603819 3.76636691,18.7401314 3.27593676,18.2255435 C2.85611033,17.6706096 2.46361437,17.0958567 2.08478365,16.5062394 C1.76972403,15.9038813 1.51312126,15.2760416 1.31042025,14.6326297 C1.04318896,14.0295638 1.15782511,13.2665297 1.51008454,12.5601215 C1.58828006,12.3831656 1.64901444,12.2090409 1.73100586,12.039871 C1.82894006,11.871409 1.91776409,11.7057782 1.99064535,11.5443943 C2.06352661,11.3830105 2.1204651,11.2251658 2.15386901,11.0694446 C2.20777078,10.9172624 2.24345223,10.7679116 2.24421141,10.6178529 C2.27761532,10.4139997 2.28824384,10.1761709 2.3383497,9.92489342 C2.51827532,9.17955492 2.84016755,8.29760643 3.30706313,7.50201244 C3.74662823,6.68801503 4.32891914,5.98160685 4.75861491,5.40048349 C5.21412279,4.8483809 5.52690486,4.43218048 5.46389294,4.29769396 C5.40695445,4.16674655 4.94385478,4.30335655 4.0070269,4.94818406 C3.10663966,5.59867416 2.38921475,6.330564 1.78946271,7.05466778 C1.20869016,7.80142192 0.835173698,8.58073596 0.532260958,9.29634585 C0.255160331,10.3474642 0.0198145928,11.3667306 0.112434528,12.3619309 C0.128377304,12.6096692 0.1435609,12.8559919 0.158744496,13.1016068 C0.192148407,13.3450982 0.263511309,13.5843426 0.314376355,13.8235871 C0.426734966,14.302076 0.512522283,14.7777336 0.725092627,15.2356956 C1.33243647,17.1050584 2.57445462,18.8236546 3.95995776,20.6243584 C4.45190627,21.0964769 4.94081806,21.566472 5.42821149,22.0343435 L6.1456364,22.7138544 C6.36276182,22.8929338 6.55635267,23.0309595 6.76057204,23.1880964 C7.56833935,23.7954092 8.3594047,24.4147551 9.1861515,24.9498699 C10.8100371,26.0802645 12.4756776,27.0995309 14.1595384,28.1655135 C15.0606848,28.8004315 15.7841831,29.5181649 16.5289385,30.2309435 C15.6202003,29.2392823 14.6909642,28.2256786 13.6599981,27.1009465 C12.4164615,25.5196681 9.2764939,25.2648515 6.73096403,23.0486551" id="Fill-32"></path>
                            <path d="M32.310996,36.9729655 C31.8144924,36.8335242 30.812375,36.5518103 30.812375,36.5518103 C29.5976874,34.5833522 27.522849,33.5973536 25.3986639,32.6304663 C25.521651,33.0020738 25.656785,33.3694344 25.7941966,33.7438732 C26.9185418,34.4141823 27.2814298,34.1912178 26.5199725,33.3043146 C27.3467193,34.3780833 28.2592534,35.2968386 29.241632,36.1094204 C30.2384351,36.9050144 31.302046,37.5972661 32.4180403,38.2428014 C32.5099011,37.8520827 32.7983894,37.5215289 32.310996,36.9729655" id="Fill-34"></path>
                            <path d="M33.7455421,38.9741958 C33.297626,38.7349513 32.8504691,38.4893365 32.4184958,38.2430138 C32.4033122,38.2805284 32.4002755,38.3251213 32.3911654,38.3690064 C32.8550242,38.5912631 33.3181239,38.8135198 33.7713542,39.0308217 L33.7455421,38.9741958 Z" id="Fill-36"></path>
                            <path d="M6.25715991,10.1295253 C7.2349835,8.96940203 8.6592048,8.27007208 10.0720384,7.74769809 C11.5038515,7.23452581 12.988048,6.91529727 14.4578201,6.67534499 C17.505927,6.19968737 20.5790868,6.05883043 23.5930306,6.07157126 C24.0508161,5.80118256 24.375745,5.48195401 25.0043459,5.64192219 C25.4780741,5.87904318 25.9533206,6.02910183 26.4232529,6.12890499 C27.3054199,6.1678353 28.1853093,6.19827173 29.058366,6.25843675 C29.3658339,6.23366292 29.6770976,6.20818126 29.9929164,6.1826996 C29.9967123,6.18199178 30.0111367,6.17845266 30.0179693,6.17632919 C30.5205463,6.04325831 30.3846531,5.82807986 30.0855363,5.61431707 C29.7484605,5.45930365 29.4394743,5.28022422 29.1760389,5.09194308 C29.3438176,5.21227313 29.7947704,5.40904815 30.0855363,5.61431707 C30.4962526,5.80472168 30.9532788,5.96327421 31.4915373,6.06449302 C32.3015821,6.01494535 33.1480676,6.02627053 34.0120142,6.15438665 C33.0326723,6.25914458 32.2021296,6.19897955 31.4915373,6.06449302 C30.9775726,6.09634509 30.4856241,6.13881452 29.9929164,6.1826996 C29.8501906,6.21879862 29.7074648,6.25418981 29.5586655,6.29170447 C31.5682145,6.42548318 33.5625798,6.60031566 35.5546676,6.82540364 C36.0170081,6.8211567 36.4588507,6.83106623 36.8209795,6.81549411 C38.2854373,6.75108214 39.7544502,6.71569095 40.568291,7.46244509 C40.9182729,7.51411623 41.2758466,7.56649519 41.6326611,7.61887416 C41.5711675,7.57003431 41.5028413,7.52898053 41.4413478,7.47518592 C41.5954613,7.53322747 41.7237626,7.59126903 41.8270111,7.64577146 C43.3210769,7.8666125 44.8174203,8.1072726 46.3175596,8.36350483 C47.3303055,8.23609654 48.3870837,8.0598484 49.4271601,8.01100856 C49.4271601,8.01100856 50.0299488,8.56027985 50.3267881,8.82996073 C50.7921654,8.55603291 51.4162111,8.41659161 52.1199708,8.41446814 C51.3805297,7.88218462 50.7132107,7.33716027 50.0641119,6.95705887 C49.1515778,6.13244411 47.5755205,7.98411125 46.5703665,6.55643058 C47.5755205,7.98411125 49.1515778,6.13244411 50.0641119,6.95705887 C50.7132107,7.33716027 51.3805297,7.88218462 52.1199708,8.41446814 C53.5874654,8.39464907 55.388999,8.93613431 56.7342656,9.84356446 C54.7915245,10.0920106 53.3589523,9.29570881 52.1199708,8.41446814 C51.4162111,8.41659161 50.7921654,8.55603291 50.3267881,8.82996073 C50.0299488,8.56027985 49.4271601,8.01100856 49.4271601,8.01100856 C48.3870837,8.0598484 47.3303055,8.23609654 46.3175596,8.36350483 C49.2441977,8.86605975 52.1890562,9.42736404 55.1878164,10.0467099 C64.8149754,12.111432 73.9972551,14.3240893 83.1613145,16.8956133 C92.3223371,19.4685529 101.469695,22.4024827 110.875932,26.1093561 C115.957882,28.1464731 120.861424,30.3032123 125.582763,32.606471 C130.305621,34.9033594 134.861459,37.3319029 139.20169,39.9451885 C147.890503,45.09036 156.259701,49.7995119 164.201481,55.1810965 C172.122763,60.5556029 179.608275,66.6209453 185.973239,74.2930478 C187.206147,75.7511649 188.80422,77.4053492 190.601958,79.1359784 C192.361737,80.9041224 194.350029,82.7225218 196.276068,84.589761 C200.173697,88.2796467 204.020461,91.9836888 206.518163,94.6309499 C210.716427,97.4948051 213.160227,97.157881 214.588244,95.9482101 C216.006392,94.7519878 216.342708,92.7113317 216.319933,92.4274943 C216.326766,90.4703614 215.960841,88.8777578 215.30491,87.4302581 C214.98074,86.7040308 214.590521,86.00824 214.140328,85.3174039 C213.678747,84.6350618 213.159468,83.9555509 212.591601,83.2498505 C210.320135,80.4143083 207.229514,77.2397184 203.579378,71.7753184 C204.909461,73.5604501 205.072684,74.3489659 204.595919,74.3447189 C204.119914,74.3390563 202.950018,73.5915944 201.495429,72.3840469 C200.770412,71.7781497 199.97707,71.0540459 199.165506,70.2450033 C198.334204,69.4550719 197.483164,68.5816173 196.664009,67.6557837 C195.045438,65.7842975 193.463307,63.7931891 192.449802,61.8063276 C189.549735,56.014913 183.748842,51.1585337 177.079448,46.9292863 C170.404739,42.6717259 162.990589,38.9351239 156.633217,34.6542054 C155.050327,33.5691115 153.285234,32.6531874 151.448019,31.6778062 C150.524857,31.1979016 149.581196,30.7073797 148.612483,30.2034091 C147.627826,29.7277515 146.621154,29.2343983 145.596261,28.7077774 C140.456614,25.6457315 135.168168,23.1011048 129.795452,20.8155417 C124.418182,18.5420115 118.949809,16.5622283 113.388817,14.7544462 C102.254686,11.1452525 90.7895531,8.18725669 78.6047173,5.04876582 C72.1000648,3.50570987 66.0425692,3.54464018 60.3874388,3.21762557 C56.31368,2.71223936 52.0933995,1.37869926 48.7583227,0.927815478 C43.5222596,0.224946414 38.8996138,0.240518538 34.4789098,0.537804547 C39.386248,0.63619206 42.9779277,0.638315531 48.384047,1.14653304 C51.968894,1.55707086 45.6289835,2.51050956 43.2307345,2.64924304 C42.1861031,2.83964765 40.7747879,1.16635211 39.7126953,1.37799143 C37.4920944,1.16776776 35.3891664,1.60803418 32.9757338,1.8550647 C31.9341391,2.09501698 32.132285,0.750151696 31.6069326,0.874728691 C28.2817251,1.02478734 25.7331585,2.74833837 23.6423773,2.4107064 C22.0443039,2.2323348 20.579846,2.08723091 19.1305718,1.97751822 C18.2187968,1.96406957 17.3024668,1.98955123 16.3390677,2.14598029 C15.7476666,2.34063185 15.1441187,2.51334086 14.5337381,2.73064278 C15.1023638,3.06190433 15.3528931,3.5481793 15.5905164,4.03445427 C15.1410819,4.0471951 14.6331906,4.04224034 14.0402712,4.03657775 C13.4093928,4.04507163 12.7451105,4.0946193 12.206852,4.15761562 C12.7451105,4.0946193 13.4093928,4.04507163 14.0402712,4.03657775 C14.6331906,4.04224034 15.1410819,4.0471951 15.5905164,4.03445427 C15.3528931,3.5481793 15.1023638,3.06190433 14.5337381,2.73064278 C14.2870047,2.81345816 14.0850628,2.88848749 13.7753175,2.98050459 C13.4815149,3.06827474 13.1725287,3.18152656 12.8741711,3.28132972 C12.2706231,3.48022821 11.6784629,3.69328319 11.1022454,3.93394329 C9.9407003,4.38765837 8.84899975,4.93055924 7.84460488,5.53079385 C6.8326182,6.12253458 5.94134112,6.82469582 5.18216132,7.61250374 C4.42222234,8.39818819 3.82854373,9.32048265 3.52335345,10.3369177 C3.44439875,10.6582697 3.41403156,10.9874078 3.35937062,11.3002659 C3.34039112,11.6194944 3.36544405,11.938723 3.36772159,12.2501655 C3.4087173,12.2388403 3.45882317,12.2253916 3.50209642,12.2133586 C3.52639017,11.9132413 3.51576165,11.6074614 3.57953276,11.3130067 C3.66228336,11.0235068 3.72149938,10.7248051 3.83537635,10.4452147 C4.72058,8.47321752 7.01558053,7.30601602 9.49582094,7.06394027 C8.16194203,7.28265784 7.95544513,6.95918234 9.29084239,6.33983649 C9.80404794,6.40212499 10.2914414,6.4587509 10.7651696,6.56421665 C9.70459539,7.08446716 8.7533431,7.63656975 7.77400115,8.19433493 C6.79845511,8.75705488 5.77052566,9.34242518 4.69704542,10.0948419 C4.65073546,10.2972795 4.6302376,10.5089189 4.59835205,10.7106487 C4.57557666,11.0058112 4.60973975,11.3130067 4.61581319,11.6039223 C4.32808404,12.2487498 3.90825761,12.135498 3.50209642,12.2133586 C3.46261907,12.4780848 3.55599818,12.7442265 3.5818103,13.0103683 C3.62508355,13.27651 3.65620992,13.5454831 3.76629099,13.8017153 C3.80197244,13.7224391 3.83309881,13.630422 3.86422518,13.5292031 C3.91281269,13.425153 3.96064102,13.3119012 4.00695099,13.1915712 C4.1117178,12.9509111 4.15954613,12.6847693 4.29619849,12.4143806 C4.44423855,12.1446997 4.54293192,11.8644015 4.71071066,11.6124162 C4.89443217,11.36397 5.04095387,11.1204786 5.25200586,10.9385679 C5.52606977,10.668887 5.76672976,10.4622025 5.96563487,10.3362098 C6.15087474,10.2052624 6.25715991,10.1295253 6.25715991,10.1295253" id="Fill-38"></path>
                            <path d="M31.5487035,6.10696245 C31.191889,6.1352754 30.7546015,6.14518494 30.2892242,6.15721794 C31.9692891,6.2924123 33.6470765,6.4438866 35.3279006,6.63783033 C34.4912844,5.91160307 33.0161981,5.99654193 31.5487035,6.10696245" id="Fill-40"></path>
                        </g>
                        <path d="M274.381889,117.84048 C278.478234,120.52974 284.148051,119.627975 287.045781,115.826331 C288.98448,113.282876 290.489514,110.959622 291.519463,108.703762 C293.531579,104.296697 293.937745,100.116177 290.771564,96.1240233 C287.681183,92.2275014 283.197139,91.205675 277.794665,91.5297769 C274.417773,91.7323612 270.383755,92.5405472 265.682465,93.8904893 C256.882754,96.4172643 245.62453,100.896629 233.312127,106.770846 C205.711389,119.93909 176.53186,138.175535 153.641614,157.42665 C128.618794,178.471314 108.661521,202.145833 93.0562918,227.52052 C81.5689486,246.19937 73.4462967,263.990427 67.348868,281.460831 C65.8027052,285.89091 68.4189753,290.645437 73.1924709,292.080365 C77.9659666,293.515293 83.0890619,291.087244 84.6352247,286.657165 C90.3725153,270.218632 98.018838,253.47088 108.837366,235.879549 C123.527407,211.992991 142.303338,189.719851 165.843219,169.922367 C187.495144,151.712702 215.366706,134.293703 241.619783,121.768425 C252.829938,116.420087 262.96682,112.368925 270.585007,110.136184 C270.280912,113.049842 271.622425,116.028886 274.381889,117.84048 Z" id="Stroke-43" fill-rule="nonzero"></path>
                    </g>
                </g>
            </g>
        </g>
    </g>
</svg>